ffmpeg version 3.4.8-0ubuntu0.2 Copyright (c) 2000-2020 the FFmpeg developers
  built with gcc 7 (Ubuntu 7.5.0-3ubuntu1~18.04)
  configuration: --prefix=/usr --extra-version=0ubuntu0.2 --toolchain=hardened --libdir=/usr/lib/x86_64-linux-gnu --incdir=/usr/include/x86_64-linux-gnu --enable-gpl --disable-stripping --enable-avresample --enable-avisynth --enable-gnutls --enable-ladspa --enable-libass --enable-libbluray --enable-libbs2b --enable-libcaca --enable-libcdio --enable-libflite --enable-libfontconfig --enable-libfreetype --enable-libfribidi --enable-libgme --enable-libgsm --enable-libmp3lame --enable-libmysofa --enable-libopenjpeg --enable-libopenmpt --enable-libopus --enable-libpulse --enable-librubberband --enable-librsvg --enable-libshine --enable-libsnappy --enable-libsoxr --enable-libspeex --enable-libssh --enable-libtheora --enable-libtwolame --enable-libvorbis --enable-libvpx --enable-libwavpack --enable-libwebp --enable-libx265 --enable-libxml2 --enable-libxvid --enable-libzmq --enable-libzvbi --enable-omx --enable-openal --enable-opengl --enable-sdl2 --enable-libdc1394 --enable-libdrm --enable-libiec61883 --enable-chromaprint --enable-frei0r --enable-libopencv --enable-libx264 --enable-shared
  libavutil      55. 78.100 / 55. 78.100
  libavcodec     57.107.100 / 57.107.100
  libavformat    57. 83.100 / 57. 83.100
  libavdevice    57. 10.100 / 57. 10.100
  libavfilter     6.107.100 /  6.107.100
  libavresample   3.  7.  0 /  3.  7.  0
  libswscale      4.  8.100 /  4.  8.100
  libswresample   2.  9.100 /  2.  9.100
  libpostproc    54.  7.100 / 54.  7.100
[rawvideo @ 0x56235d909a20] Estimating duration from bitrate, this may be inaccurate
Input #0, rawvideo, from '../../SVC-Encoder-20220109T061506Z-001/SVC-Encoder/Dataset/RollerCoaster/ERP_8x8/tile_yuv/Tile_60_480x240.yuv':
  Duration: 00:00:10.00, start: 0.000000, bitrate: 41472 kb/s
    Stream #0:0: Video: rawvideo (I420 / 0x30323449), yuv420p, 480x240, 41472 kb/s, 30 tbr, 30 tbn, 30 tbc
Stream mapping:
  Stream #0:0 -> #0:0 (rawvideo (native) -> h264 (libx264))
Press [q] to stop, [?] for help
[libx264 @ 0x56235d916c60] using cpu capabilities: MMX2 SSE2Fast LZCNT SSSE3 SSE4.2 AVX
[libx264 @ 0x56235d916c60] profile High, level 2.1
Output #0, rawvideo, to 'RollerCoaster_Tile_60_480x240_x264_QP_20.h264':
  Metadata:
    encoder         : Lavf57.83.100
    Stream #0:0: Video: h264 (libx264), yuv420p, 480x240, q=-1--1, 30 fps, 30 tbn, 30 tbc
    Metadata:
      encoder         : Lavc57.107.100 libx264
    Side data:
      cpb: bitrate max/min/avg: 0/0/0 buffer size: 0 vbv_delay: -1
frame=  159 fps=0.0 q=26.0 PSNR=Y:nan U:nan V:nan *:nan size=      92kB time=00:00:03.86 bitrate= 194.0kbits/s speed=7.67x    frame=  300 fps=289 q=26.0 LPSNR=Y:inf U:inf V:inf *:inf size=     207kB time=00:00:09.93 bitrate= 170.6kbits/s speed=9.55x    
video:207kB audio:0kB subtitle:0kB other streams:0kB global headers:0kB muxing overhead: 0.000000%
[libx264 @ 0x56235d916c60] frame I:2     Avg QP:18.81  size:  9228  PSNR Mean Y:51.12 U:54.06 V:50.06 Avg:51.27 Global:51.22
[libx264 @ 0x56235d916c60] frame P:77    Avg QP:19.87  size:  1649  PSNR Mean Y:48.99 U:52.43 V:49.31 Avg:49.46 Global:49.43
[libx264 @ 0x56235d916c60] frame B:221   Avg QP:25.43  size:   300  PSNR Mean Y:48.44 U:52.18 V:49.01 Avg:48.97 Global:48.92
[libx264 @ 0x56235d916c60] consecutive B-frames:  0.7%  2.7%  2.0% 94.7%
[libx264 @ 0x56235d916c60] mb I  I16..4: 43.2% 25.3% 31.4%
[libx264 @ 0x56235d916c60] mb P  I16..4:  5.1%  1.2%  0.3%  P16..4: 37.9% 15.5%  4.4%  0.0%  0.0%    skip:35.6%
[libx264 @ 0x56235d916c60] mb B  I16..4:  0.1%  0.0%  0.0%  B16..8: 34.1%  3.6%  0.1%  direct: 0.2%  skip:61.9%  L0:46.7% L1:50.3% BI: 3.0%
[libx264 @ 0x56235d916c60] 8x8 transform intra:20.2% inter:70.7%
[libx264 @ 0x56235d916c60] coded y,uvDC,uvAC intra: 18.3% 56.6% 17.3% inter: 6.3% 9.7% 0.2%
[libx264 @ 0x56235d916c60] i16 v,h,dc,p: 29% 47% 20%  4%
[libx264 @ 0x56235d916c60] i8 v,h,dc,ddl,ddr,vr,hd,vl,hu:  5% 37% 48%  1%  1%  0%  3%  1%  3%
[libx264 @ 0x56235d916c60] i4 v,h,dc,ddl,ddr,vr,hd,vl,hu:  8% 64% 13%  1%  2%  1%  6%  1%  5%
[libx264 @ 0x56235d916c60] i8c dc,h,v,p: 43% 48%  7%  2%
[libx264 @ 0x56235d916c60] Weighted P-Frames: Y:2.6% UV:0.0%
[libx264 @ 0x56235d916c60] ref P L0: 54.1%  9.3% 27.6%  8.9%  0.1%
[libx264 @ 0x56235d916c60] ref B L0: 70.9% 24.1%  5.1%
[libx264 @ 0x56235d916c60] ref B L1: 85.3% 14.7%
[libx264 @ 0x56235d916c60] PSNR Mean Y:48.598 U:52.257 V:49.096 Avg:49.110 Global:49.054 kb/s:169.47
